<svg id="SvgjsSvg1150" width="550" height="550" xmlns="http://www.w3.org/2000/svg" version="1.1"
    xmlns:xlink="http://www.w3.org/1999/xlink" xmlns:svgjs="http://svgjs.com/svgjs">
    <defs id="SvgjsDefs1151"></defs>
    <g id="SvgjsG1152"><svg xmlns="http://www.w3.org/2000/svg" viewBox="0 0 800 800" width="550" height="550">
            <g data-name="Secondary shapes" fill="#000000" class="color000 svgShape">
                <path
                    d="M359 699.48c0-5.39-61.19-9.76-136.66-9.76s-136.67 4.37-136.67 9.76 61.19 9.76 136.67 9.76S359 704.87 359 699.48zM702.74 675.64c0-5-86.24-9-192.62-9s-192.61 4-192.61 9 86.23 9 192.61 9S702.74 680.6 702.74 675.64z"
                    style="mix-blend-mode:multiply" fill="#e7eeff" class="colore7eeff svgShape"></path>
                <path fill="#20196f"
                    d="M661,375.42c32.13-3.2,44.49-30.78,35.51-67.74C668.12,316.37,643,345.06,661,375.42Z"
                    class="color20196f svgShape"></path>
                <path fill="#5652cc"
                    d="M382.77,177.91c46.66-3.2,65.78-42.56,54.44-96.46C395.68,92.75,358,133.16,382.77,177.91Z"
                    class="color5652cc svgShape"></path>
                <path fill="#362e94"
                    d="M648.11,388c31.84,34.26,74.46,24.35,109.22-18.38C722.42,344.49,667.33,340.67,648.11,388Z"
                    class="color362e94 svgShape"></path>
                <path fill="#807dfb"
                    d="M382.55,178.14c12.78-52.75-24.1-87.68-87.71-94C292.82,134.08,324.38,189.84,382.55,178.14Z"
                    class="color807dfb svgShape"></path>
                <path fill="none" stroke="#6b67e9" stroke-linecap="round" stroke-linejoin="round" stroke-width="2"
                    d="M382.55,178.14c-16.51-15.77-51.41-58.86-76.42-83" class="colorStroke6b67e9 svgStroke"></path>
                <path fill="none" stroke="#e9edf7" stroke-linecap="round" stroke-linejoin="round" stroke-width="2"
                    d="M572.34,94.53c-28.1,21.28-42.84,8.49-45.08-2.18-13.56.41-26.62-14.88-18.75-38.52"
                    class="colorStrokee9edf7 svgStroke"></path>
                <path fill="none" stroke="#e9edf7" stroke-linecap="round" stroke-linejoin="round" stroke-width="2"
                    d="M571.91,80.32c-13.85,20.61-34.74,22.49-43.77,10.81-10.2-2.83-21.9-19.84-9.12-44.26"
                    class="colorStrokee9edf7 svgStroke"></path>
                <path fill="none" stroke="#e9edf7" stroke-linecap="round" stroke-linejoin="round" stroke-width="2"
                    d="M565.6,62c-.81,7.83-18.94,39.77-36.13,27.37-10.17-2.4-13-28.62-.24-47.11"
                    class="colorStrokee9edf7 svgStroke"></path>
                <path fill="none" stroke="#e9edf7" stroke-linecap="round" stroke-linejoin="round" stroke-width="2"
                    d="M528.6 54.43c-1.87 4.9-2.1 23.76.87 34.94 9.66-3.76 22.76-18 25-24.08M529.47 89.37c.47-11.16 1.09-23.33 8.81-39.69M549 47.06c-.16 9.07-11.74 32.7-19.37 39.57M527.26 92.35c-3.07 8.49-33.6 55.57-49.29 72.55"
                    class="colorStrokee9edf7 svgStroke"></path>
                <path fill="#362e94"
                    d="M621.71,415.45c-49-6.75-77.31,29.9-77.19,88.18C590,500.88,637.67,467.14,621.71,415.45Z"
                    class="color362e94 svgShape"></path>
                <path fill="none" stroke="#5652cc" stroke-linecap="round" stroke-linejoin="round" stroke-width="2"
                    d="M621.71,415.45c-12.79,16.42-48.67,52-68.25,76.93" class="colorStroke5652cc svgStroke"></path>
                <path fill="#6b67e9"
                    d="M120.94,260.92c-5.37-.93-10.45-3.63-9.64-6.91.77-3.12,6.17-3.18,11.28-1.94-2.17-4.2-2.92-8.67-.3-10.06,5.13-2.73,12.89,12.46,11.73,17-.57,6.21-14.63,15.07-17.72,10.13C114.82,266.8,117.37,263.57,120.94,260.92Z"
                    class="color6b67e9 svgShape"></path>
                <path fill="none" stroke="#ced3f8" stroke-linecap="round" stroke-linejoin="round" stroke-width="2"
                    d="M134,259c6.62,1.42,23.39,15.92,31.72,35.5" class="colorStrokeced3f8 svgStroke"></path>
                <path fill="#ced3f8"
                    d="M128.88,262.34a4.12,4.12,0,0,1,1.61-2.53c-1.4-.45-3.14-2-2.44-3.42.5-1,2.31-.32,3.78.55a6.69,6.69,0,0,1-.31-1.77c-.06-4.87,4.14,1.59,3.19,4a13.31,13.31,0,0,1-1.42,2.43C131.9,263.62,128.81,264.14,128.88,262.34Z"
                    class="colorced3f8 svgShape"></path>
                <path fill="#5652cc"
                    d="M639.21,392.48c13.28-5.58,50.54-8.43,62.77,20.63,5.54,13.15,6.22,16.93,3.78,22.13-1.59,3.38-4.65,5.43-3.5,8.56,2.1,5.72,23.53-2.13,33.15,17.93s-3,30.2-.36,35.59,12,4,13,14.58-16.38,12.51-17,26.28c-.66,14.32-7,37.83-20.59,37.21s-12.55-11.66-19.72-17.62-34-6.51-33.07-27.67,4.4-28.68-19.83-39.05-28.85-36.38-22.7-47.72-1.25-10.32-6.85-5.22-7.7-6.35-3.68-14.88S622.54,399.48,639.21,392.48Z"
                    class="color5652cc svgShape"></path>
                <path fill="none" stroke="#6b67e9" stroke-linecap="round" stroke-linejoin="round" stroke-width="1.58"
                    d="M634.56 387c48.14 49.47 71 115.09 74.51 164M702.72 511.63c3.2 1.07 17.24 3.75 25.49 2.09M705 521.92c-2.76 4.41-12 12.87-15 14.84M688.67 469.44c4.69 2 14.34 5.52 29.2 2.39M694.94 485.61c-1.52 4.53-12.33 16.48-17.55 21.24M673.19 438.3c-2.76 6.47-9.73 11.78-14.09 15.76M662.8 421.7c5.84 3.46 18.55 5.54 28 4.88"
                    class="colorStroke6b67e9 svgStroke"></path>
                <path fill="#ced3f8"
                    d="M262.38,566.55c1.28-4.78,44.14-22.95,48.15-15,3.12,6.21-3.39,9.66-5.85,10.73-3.88,1.68-13.48,5.12-11.78,7.79,3.07,4.84,26.24-7,32.06-9.47s17.8-5.84,23.62-1.93,7.74,6.18-2.69,10S314,577.6,321.11,581.48s22.91-3.89,33.58-5,31.38.32,27.53,7.39c-3.44,6.32-35.12,5.16-32.91,10.25,1.76,4.06,10.45,1.1,24.58.88s27.47-.29,28.37,8.1c.73,6.73-8.35,5-16,5.18s-18.22.92-15.55,4.32,39.82-1.25,43.42,9.36c2.38,7-5.86,5.5-14.71,6.25s-11.91,1.67-11.17,3.36,12.84,2.63,19.5,3,16.09,3.09,16,9.3-10.72,4.58-14.5,3.07-8-1.35-8.47-.22,11.69,7,7.67,12.78-15.05-1-17.84-7.43-6.79-15-9.14-14,.88,8.47,3.43,14.35,2.22,8.79.65,9.47c-5.22,2.26-12.94-3.47-14.8-7.77s-9.17-29.71-12.64-28.21.28,10.75,2.34,15.5,6.86,15.82,1,18.34-15.42-11-18.78-20.31-7.67-24.73-10.36-23.57-1.31,14.13,1.19,19.9,9.86,14.78,2.7,17.88-12.43-5.06-17.34-16.37c-2.05-4.73-7-16.48-5.78-24.55,1.39-9.19.57-14-1.55-14.42-4.22-.85-4.37,7.4-3.13,13.31s6.17,24-3.26,24.36-9.68-15.26-10.4-21.53-1.35-28.54-6.22-28.44-1.42,11.75-.73,15.48-.36,11.9-3.66,10.58S260.09,575.07,262.38,566.55Z"
                    class="colorced3f8 svgShape"></path>
                <path fill="#dde2f8"
                    d="M254.68,542.92c5.38,17.42,34.46,43.14,70.8,24.08s99.86-76.57,90.83-99c-7.19-17.83-103.84-12.33-132.35.87S245.68,513.76,254.68,542.92Z"
                    class="colordde2f8 svgShape"></path>
                <path fill="none" stroke="#e9edf7" stroke-linecap="round" stroke-linejoin="round" stroke-width="2"
                    d="M416.31,468c-20.16,7.66-122.6,53.84-146,68.43" class="colorStrokee9edf7 svgStroke"></path>
                <path fill="#f6f6fb"
                    d="M356.27 526.92c2.94.68 6-1.81 6.88-5.55s-.8-7.33-3.73-8-6 1.8-6.88 5.55S353.34 526.24 356.27 526.92zM324.27 494.49c2.15 1.48 5.66.11 7.83-3.06s2.2-6.94 0-8.41-5.66-.11-7.83 3.06S322.11 493 324.27 494.49zM378.41 506.77c1.34.92 3.53.07 4.88-1.9s1.36-4.32 0-5.24-3.53-.07-4.88 1.91S377.07 505.85 378.41 506.77zM335 474.09c.61 1.67 3.09 2.29 5.54 1.4s3.94-3 3.33-4.64-3.08-2.29-5.53-1.39S334.4 472.43 335 474.09zM335.81 535.19c.92.64 2.42.06 3.35-1.29s.95-2.95 0-3.59-2.42 0-3.35 1.29S334.9 534.56 335.81 535.19zM315.39 474.8c.12 1.32 1.79 2.24 3.73 2.07s3.42-1.38 3.3-2.69-1.78-2.25-3.72-2.08S315.28 473.48 315.39 474.8zM371.29 520.48c.12 1.32 1.78 2.25 3.73 2.08s3.41-1.38 3.3-2.7-1.79-2.25-3.73-2.08S371.17 519.16 371.29 520.48z"
                    class="colorf6f6fb svgShape"></path>
                <rect width="323.14" height="280.4" x="348.55" y="148.98" fill="#f6f6fb" stroke="#dde2f8"
                    stroke-width="3" rx="13.93" class="colorf6f6fb svgShape colorStrokedde2f8 svgStroke"></rect>
                <circle cx="510.12" cy="212.06" r="28.46" fill="#ced3f8" class="colorced3f8 svgShape"></circle>
                <path fill="none" stroke="#807dfb" stroke-miterlimit="10" stroke-width="2"
                    d="M516.92 189a24 24 0 11-28.75 32.71M520.77 243.33a33 33 0 11-18.2-63.44M541.56 222.21a33.14 33.14 0 01-8.73 13.84"
                    class="colorStroke807dfb svgStroke"></path>
                <path fill="#ffffff"
                    d="M513.68,210.65a6.48,6.48,0,1,0-7.11,0c-6.68,1.65-7.09,6.44-7.09,12h21.29C520.77,217.09,520.1,212.3,513.68,210.65Z"
                    class="colorfff svgShape"></path>
                <rect width="257.79" height="44.28" x="381.23" y="258.46" fill="#dde2f8" rx="8.54"
                    class="colordde2f8 svgShape"></rect>
                <rect width="257.79" height="44.28" x="381.23" y="315.85" fill="#dde2f8" rx="8.54"
                    class="colordde2f8 svgShape"></rect>
                <rect width="73.95" height="20.72" x="473.15" y="374.41" fill="#5652cc" rx="3.99"
                    class="color5652cc svgShape"></rect>
                <path fill="#6b67e9"
                    d="M410.49 338l4.16 2.3-1.42 2.48L409 340.29l0 4.71h-2.78l0-4.67-4.2 2.44-1.46-2.48 4.2-2.3-4.2-2.3 1.46-2.52 4.2 2.48 0-4.67H409l0 4.71 4.24-2.52 1.42 2.52zM433.26 338l4.16 2.3L436 342.77l-4.24-2.48 0 4.71H429l0-4.67-4.2 2.44-1.46-2.48 4.2-2.3-4.2-2.3 1.46-2.52 4.2 2.48 0-4.67h2.77l0 4.71 4.24-2.52 1.42 2.52zM456 338l4.16 2.3-1.43 2.48-4.23-2.48 0 4.71H451.8l0-4.67-4.2 2.44-1.46-2.48 4.2-2.3-4.2-2.3 1.46-2.52 4.2 2.48 0-4.67h2.78l0 4.71 4.23-2.52 1.43 2.52zM478.81 338l4.16 2.3-1.42 2.48-4.24-2.48 0 4.71h-2.78l0-4.67-4.2 2.44L469 340.29l4.2-2.3-4.2-2.3 1.46-2.52 4.2 2.48 0-4.67h2.78l0 4.71 4.24-2.52 1.42 2.52zM501.58 338l4.17 2.3-1.43 2.48-4.23-2.48 0 4.71h-2.77l0-4.67-4.19 2.44-1.47-2.48 4.2-2.3-4.2-2.3 1.47-2.52 4.19 2.48 0-4.67h2.77l0 4.71 4.23-2.52 1.43 2.52zM524.36 338l4.16 2.3-1.42 2.48-4.24-2.48 0 4.71h-2.78l0-4.67-4.2 2.44-1.46-2.48 4.2-2.3-4.2-2.3 1.46-2.52 4.2 2.48 0-4.67h2.78l0 4.71 4.24-2.52 1.42 2.52zM547.13 338l4.16 2.3-1.42 2.48-4.24-2.48 0 4.71H542.9l0-4.67-4.2 2.44-1.46-2.48 4.2-2.3-4.2-2.3 1.46-2.52 4.2 2.48 0-4.67h2.77l0 4.71 4.24-2.52 1.42 2.52zM569.91 338l4.16 2.3-1.42 2.48-4.24-2.48 0 4.71h-2.78l0-4.67-4.2 2.44-1.46-2.48 4.2-2.3-4.2-2.3 1.46-2.52 4.2 2.48 0-4.67h2.78l0 4.71 4.24-2.52 1.42 2.52zM592.68 338l4.16 2.3-1.42 2.48-4.24-2.48 0 4.71h-2.78l0-4.67-4.2 2.44-1.46-2.48L587 338l-4.2-2.3 1.46-2.52 4.2 2.48 0-4.67h2.78l0 4.71 4.24-2.52 1.42 2.52zM615.45 338l4.17 2.3-1.43 2.48L614 340.29l0 4.71h-2.77l0-4.67-4.2 2.44-1.47-2.48 4.2-2.3-4.2-2.3 1.47-2.52 4.2 2.48 0-4.67H614l0 4.71 4.23-2.52 1.43 2.52zM523.07 276h5v7.2c0 1.71-.73 2.57-2.18 2.57a3.35 3.35 0 01-2.76-1.59L521.62 286a4.79 4.79 0 001.84 1.48 5.74 5.74 0 002.45.53 4.69 4.69 0 003.51-1.23 5.08 5.08 0 001.19-3.67v-9.23h-7.54zm18.63 1.71a6 6 0 00-2.93-.7 6 6 0 00-2.9.7 5 5 0 00-2 1.93 5.37 5.37 0 00-.73 2.8 5.44 5.44 0 00.73 2.82 5 5 0 002 1.94 6 6 0 002.9.7 6 6 0 002.93-.7 5.1 5.1 0 002-1.94 5.53 5.53 0 00.72-2.82 5.46 5.46 0 00-.72-2.8A5.14 5.14 0 00541.7 277.75zm-.66 7.14a3.25 3.25 0 01-4.53 0 3.73 3.73 0 010-4.81 3.25 3.25 0 014.53 0 3.66 3.66 0 010 4.81zm11.82-7.84a5.67 5.67 0 00-2 .35 4.11 4.11 0 00-1.52 1V273h-2.49V287.8h2.49v-5.38a3.28 3.28 0 01.8-2.37 2.87 2.87 0 012.17-.83 2.43 2.43 0 011.87.71 3 3 0 01.65 2.1v5.77h2.49v-6.09a4.62 4.62 0 00-1.21-3.48A4.43 4.43 0 00552.86 277.05zm13.64 0a5.59 5.59 0 00-2.11.38 3.91 3.91 0 00-1.56 1.11v-1.37h-2.36V287.8H563v-5.38a3.28 3.28 0 01.8-2.37 2.87 2.87 0 012.17-.83 2.43 2.43 0 011.87.71 3 3 0 01.66 2.1v5.77h2.49v-6.09a4.62 4.62 0 00-1.22-3.48A4.41 4.41 0 00566.5 277.05zm23.38-2.32a8.8 8.8 0 00-4-.86h-6.09V287.8h6.09a8.68 8.68 0 004-.87 6.37 6.37 0 002.69-2.44 7.44 7.44 0 000-7.31A6.46 6.46 0 00589.88 274.73zm.41 8.62A4.19 4.19 0 01588.5 285a6 6 0 01-2.7.59h-3.38v-9.55h3.38a6 6 0 012.7.58 4.16 4.16 0 011.79 1.68 5.34 5.34 0 010 5zm13.45-5.6a6.44 6.44 0 00-5.84 0 5.14 5.14 0 00-2 1.93 5.46 5.46 0 00-.72 2.8 5.53 5.53 0 00.72 2.82 5.1 5.1 0 002 1.94 6.44 6.44 0 005.84 0 5.1 5.1 0 002-1.94 5.53 5.53 0 00.72-2.82 5.46 5.46 0 00-.72-2.8A5.14 5.14 0 00603.74 277.75zm-.66 7.14a3 3 0 01-2.27.92 3 3 0 01-2.26-.92 3.69 3.69 0 010-4.81 3 3 0 012.26-.92 3 3 0 012.27.92 3.69 3.69 0 010 4.81zm15.78-2.35a5.83 5.83 0 00-.69-2.87 4.8 4.8 0 00-1.91-1.93 5.53 5.53 0 00-2.77-.69 5.68 5.68 0 00-2.83.7 5 5 0 00-2 1.94 5.82 5.82 0 000 5.61 5 5 0 002.06 1.94 6.52 6.52 0 003.09.7 6.61 6.61 0 002.46-.44 4.52 4.52 0 001.82-1.29l-1.34-1.54a3.87 3.87 0 01-2.89 1.16 3.71 3.71 0 01-2.29-.69 2.91 2.91 0 01-1.15-1.86h8.34C618.85 283 618.86 282.72 618.86 282.54zm-8.4-.91a3.11 3.11 0 015.06-1.87 2.92 2.92 0 011 1.87z"
                    class="color6b67e9 svgShape"></path>
                <polygon fill="#9f9cff"
                    points="515.33 380.03 513.89 382.02 516 383.54 499.22 383.54 499.22 386 516 386 513.89 387.51 515.33 389.5 521.91 384.77 515.33 380.03"
                    class="color9f9cff svgShape"></polygon>
                <path fill="none" stroke="#6b67e9" stroke-linecap="round" stroke-linejoin="round" stroke-width="3"
                    d="M114.69,478.45a21.46,21.46,0,0,1-21.17,1.25" class="colorStroke6b67e9 svgStroke"></path>
                <path fill="#dde2f8"
                    d="M88.24,499.91l4.23-17.76A3.33,3.33,0,0,0,94,475.67h0l.84-3.53,8,1.9a11.42,11.42,0,0,1,8.45,13.76L110,493.36a11.43,11.43,0,0,1-13.76,8.46Z"
                    class="colordde2f8 svgShape"></path>
                <path fill="#e9edf7"
                    d="M90,478.14a3.34,3.34,0,0,0,2.47,4h0l-4.23,17.76-8-1.91a11.42,11.42,0,0,1-8.46-13.76l1.33-5.55a11.42,11.42,0,0,1,13.76-8.46l8,1.91L94,475.67A3.34,3.34,0,0,0,90,478.14Z"
                    class="colore9edf7 svgShape"></path>
                <path fill="#dde2f8"
                    d="M42.3,533.73h73.33a1.23,1.23,0,0,1,1.23,1.23v2.41a1.23,1.23,0,0,1-1.23,1.23H42.3a0,0,0,0,1,0,0v-4.87A0,0,0,0,1,42.3,533.73Z"
                    transform="rotate(103.42 79.585 536.165)" class="colordde2f8 svgShape"></path>
                <path fill="#ced3f8"
                    d="M58.81,555.73l8.27,2,1.32-5.5L63.29,551a1.41,1.41,0,0,1-1-1.7l1.17-4.89a1.41,1.41,0,0,1,1.7-1l9.71,2.31L73,553.3l-1.31,5.5-1.82,7.64L57,563.37a1.42,1.42,0,0,1-1-1.71l1.17-4.88A1.42,1.42,0,0,1,58.81,555.73Z"
                    class="colorced3f8 svgShape"></path>
                <path fill="#ced3f8"
                    d="M78.44,554.18h4.88a1.21,1.21,0,0,1,1.21,1.21V562a0,0,0,0,1,0,0H77.22a0,0,0,0,1,0,0v-6.6A1.21,1.21,0,0,1,78.44,554.18Z"
                    transform="matrix(-.23 .97 -.97 -.23 642.5 608.93)" class="colorced3f8 svgShape"></path>
                <polygon fill="#ced3f8" points="84.83 503.68 85.87 499.34 90.6 500.47 88.92 507.55 84.83 503.68"
                    class="colorced3f8 svgShape"></polygon>
                <path fill="#807dfb"
                    d="M118.18,500.45l-2.8-18a3.33,3.33,0,0,0-1-6.58h0l-.56-3.59,8.12-1.27a11.42,11.42,0,0,1,13,9.53l.88,5.64a11.42,11.42,0,0,1-9.53,13Z"
                    class="color807dfb svgShape"></path>
                <path fill="#9f9cff"
                    d="M111.57,479.63a3.34,3.34,0,0,0,3.81,2.78h0l2.8,18-8.12,1.26a11.42,11.42,0,0,1-13-9.53l-.88-5.64a11.42,11.42,0,0,1,9.53-13l8.12-1.26.56,3.59A3.33,3.33,0,0,0,111.57,479.63Z"
                    class="color9f9cff svgShape"></path>
                <path fill="#807dfb"
                    d="M86.64,534.85H160a1.23,1.23,0,0,1,1.23,1.23v2.41a1.23,1.23,0,0,1-1.23,1.23H86.64a0,0,0,0,1,0,0v-4.87A0,0,0,0,1,86.64,534.85Z"
                    transform="rotate(81.15 123.918 537.283)" class="color807dfb svgShape"></path>
                <path fill="#6b67e9"
                    d="M112.1,563.26l8.41-1.31-.87-5.59-5.19.8a1.4,1.4,0,0,1-1.61-1.18l-.78-5a1.42,1.42,0,0,1,1.19-1.62l9.85-1.53,1.21,7.76.87,5.59,1.21,7.76-13.08,2a1.42,1.42,0,0,1-1.62-1.18l-.77-5A1.41,1.41,0,0,1,112.1,563.26Z"
                    class="color6b67e9 svgShape"></path>
                <path fill="#6b67e9"
                    d="M131,553.17h4.88a1.21,1.21,0,0,1,1.21,1.21V561a0,0,0,0,1,0,0h-7.31a0,0,0,0,1,0,0v-6.6a1.21,1.21,0,0,1,1.21-1.21Z"
                    transform="rotate(81.15 133.415 557.083)" class="color6b67e9 svgShape"></path>
                <polygon fill="#6b67e9" points="116.46 505.23 115.78 500.82 120.59 500.07 121.71 507.26 116.46 505.23"
                    class="color6b67e9 svgShape"></polygon>
                <path fill="none" stroke="#6b67e9" stroke-linecap="round" stroke-linejoin="round" stroke-width="3"
                    d="M93.52,479.7a21.45,21.45,0,1,1,21.17-1.25" class="colorStroke6b67e9 svgStroke"></path>
                <polygon fill="#fcba06"
                    points="388.05 300.88 396.88 311.96 401.3 308.44 401.55 306.24 405.62 303 405.17 302.43 407.12 300.87 406.6 300.21 408.56 298.65 409.53 299.88 410.74 298.92 412.93 299.17 415.04 297.49 415.54 293.09 418.35 290.85 419.13 291.84 421.88 289.65 421.1 288.66 420.5 287.91 422.89 286.01 423.49 286.75 429.56 281.91 431.31 266.4 388.05 300.88"
                    class="colorfcba06 svgShape"></polygon>
                <polygon fill="#ed9f00" points="430.74 271.5 391.56 302.72 392.85 304.33 430.41 274.4 430.74 271.5"
                    class="colored9f00 svgShape"></polygon>
                <circle cx="380.93" cy="315.61" r="17.72" fill="#fcba06" transform="rotate(-38.8 380.977 315.634)"
                    class="colorfcba06 svgShape"></circle>
                <path fill="#ed9f00" d="M369.4,324.8a14.74,14.74,0,1,1,20.72,2.34A14.75,14.75,0,0,1,369.4,324.8Z"
                    class="colored9f00 svgShape"></path>
                <circle cx="374.64" cy="320.62" r="3.95" fill="#ffffff" transform="rotate(-77.26 374.654 320.626)"
                    class="colorfff svgShape"></circle>
                <rect width="1.53" height="11.42" x="380.76" y="309.42" fill="#fcba06"
                    transform="rotate(-38.55 381.506 315.123)" class="colorfcba06 svgShape"></rect>
                <path fill="#f7d3c9"
                    d="M118.23,417.39c-1.31,2.6-3,3.35-2.37,8.64s1.64,7.14,1.87,9.62,2.62,8.16,1.4,8.13-4.65-6.74-5.5-6.41c-.43.15-1.54,1.63-1.13,4.42.29,2,2.48,6.6.36,5.85-8.29-2.92-18.16-4-15.33-14.85,1.9-7.27,7.09-12.85,7.63-17.58C109.85,410.72,115.26,412.54,118.23,417.39Z"
                    class="colorf7d3c9 svgShape"></path>
                <path fill="#ed9f00"
                    d="M181.32,273.85c-20.88,15.24-33.21,37.54-50.14,64.59-11.08,17.72-22.62,64.54-26.45,76.48,4.6,1.47,14.67,5.13,14.67,5.13,4.43-10.55,26.79-57.6,34.38-66.35,8.27-9.53,10.38-14.44,25.61-29.67,13.62-13.62,17.05-21.36,17.27-30.29S188.58,268.57,181.32,273.85Z"
                    class="colored9f00 svgShape"></path>
                <path fill="#fcba06"
                    d="M103,415.38s15.59,6,16.55,6.53a72.36,72.36,0,0,0,5.91-9.18c-2.72-1.53-19.38-9.51-19.89-9.35C104.81,404.88,103,415.38,103,415.38Z"
                    class="colorfcba06 svgShape"></path>
                <path fill="#f7d3c9"
                    d="M351,325.85c2.86-.53,4.51.4,8.31-3.35s4.69-5.63,6.52-7.32,6.85-7.26,7.56-6.27-4.48,8-3.71,8.5,21.35-8.32,21-3.89-4.57,15.13-14.93,19.46c-6.93,2.9-14.51,2.15-18.6,4.58C350.82,336.56,349,331.16,351,325.85Z"
                    class="colorf7d3c9 svgShape"></path>
                <path fill="#20196f"
                    d="M161.45,419.94c.83,67.3,12.49,78.1,16.52,143.31C181.25,616.42,163,657,160.68,675H172.9c9-23.82,66.29-110.81,49.41-255Z"
                    class="color20196f svgShape"></path>
                <path fill="#ffd3c9"
                    d="M157.83,679.46a50,50,0,0,0,2.85-4.47H172.9c-1.2,3.45-1.91,6.4-1.44,8.13C168.28,684.33,163.63,681.19,157.83,679.46Z"
                    class="colorffd3c9 svgShape"></path>
                <path fill="#20196f"
                    d="M157.83,679.46c5.8,1.73,10.45,4.87,13.63,3.66,1.68,1.21,26.46,10.13,29,11.86s2.2,4.5-.53,4.5c-4,0-36.91-1.44-36.91-1.44-.66.72-1.21,1.44-1.21,1.44h-7.52C152,695.6,152.65,683.93,157.83,679.46Z"
                    class="color20196f svgShape"></path>
                <path fill="#362e94"
                    d="M161.45,419.94c0,61.33,40,64.1,66.94,123.64,18.47,40.87,22.13,120.61,23,131.41h12.22c6.65-29.08,26-140.08-12.22-255Z"
                    class="color362e94 svgShape"></path>
                <path fill="#ffd3c9"
                    d="M251.39,679.46c0-2,0-4.47,0-4.47h12.22c-.45,3.45,1,6.4,1.44,8.13C261.83,684.33,257.18,681.19,251.39,679.46Z"
                    class="colorffd3c9 svgShape"></path>
                <path fill="#20196f"
                    d="M251.39,679.46c5.79,1.73,10.44,4.87,13.62,3.66,1.68,1.21,26.47,10.13,29,11.86s2.2,4.5-.53,4.5c-4,0-36.91-1.44-36.91-1.44-.66.72-1.2,1.44-1.2,1.44h-7.53C245.59,695.6,246.2,683.93,251.39,679.46Z"
                    class="color20196f svgShape"></path>
                <path fill="#fcba06"
                    d="M354.09,323.19s-43.64,6.1-61.46,4.06c-6-4-36.92-55.08-61.35-56.73l-8.59-.86c-13-1-32.92.41-32.92.41-17.58,6.24-21.51,14.2-26.13,46.53s-2.19,103.34-2.19,103.34h89.9c3.09-18.82.8-56.86-2.21-88.84,12.72,13.55,26.24,22.3,37,22.3,23.28-.27,44.73-4.17,72.83-13.84C359,339.56,356.71,332.16,354.09,323.19Z"
                    class="colorfcba06 svgShape"></path>
                <path fill="#ffd3c9"
                    d="M221.7,218.73c1.13,7.48,6.83,29.53,2.59,37.62-3.47,6.65-10.87,7.91-22.9,4.1s-13-25.51-14.67-31.74C184,218.84,219.34,203,221.7,218.73Z"
                    class="colorffd3c9 svgShape"></path>
                <path fill="#ffd3c9"
                    d="M212.66,259.91c.67,3.81,2.34,9.41,2.34,9.41-1.64,2.23-26,5.05-23.59,1.08.85-7,.29-23.25.29-23.25Z"
                    class="colorffd3c9 svgShape"></path>
                <path fill="#20196f"
                    d="M189.85,211.4c12.22-5.8,28.1-18,29.9-16.51.33.27-.44,1.13-.05,1.47.62.54,6.12-8.15,11.17-4.85s2.42,19.69-9.17,27.22-.42,15-5.58,19.2-4.49,18.82-13.24,19.14-13.75,5.79-13.6.28-5.06-16.32-4.73-25.67S183.07,214.62,189.85,211.4Z"
                    class="color20196f svgShape"></path>
                <path fill="#f7d3c9"
                    d="M213.22,235c-.14-2.2.88-4.06,2.3-4.16s2.68,1.62,2.82,3.82-.87,4.05-2.29,4.15S213.37,237.24,213.22,235Z"
                    class="colorf7d3c9 svgShape"></path>
                <path fill="#ed9f00"
                    d="M359.65 340.11s-4.88-17-5-18.2a78.65 78.65 0 00-11.55.85c.44 3.29 4.31 22.5 4.76 22.84C349.59 345.28 359.65 340.11 359.65 340.11zM286.13 353.4c1.95 0 3.89-.08 5.83-.16-3.59 0-14.43-5.44-19.54-10.55S240.34 311.22 236.55 315s6.66 8.55 6.66 22.55.35 67.88-1.74 82.38h9.88c3.09-18.82.8-56.86-2.21-88.84C261.86 344.65 275.38 353.4 286.13 353.4z"
                    class="colored9f00 svgShape"></path>
                <path fill="#fcba06"
                    d="M590,734.41,578.9,730a2.13,2.13,0,0,0-2.13.31l-9.34,7.38a2.16,2.16,0,0,0-.8,2l1.73,11.78a2.15,2.15,0,0,0,1.33,1.69l11.07,4.4a2.18,2.18,0,0,0,2.13-.31l9.35-7.39a2.16,2.16,0,0,0,.79-2l-1.72-11.78A2.16,2.16,0,0,0,590,734.41Z"
                    class="colorfcba06 svgShape"></path>
                <path fill="#807dfb"
                    d="M43.27 346.24L55.9 362.73a2.92 2.92 0 005-.65l8-19.18a2.92 2.92 0 00-3.07-4l-20.6 2.69A2.92 2.92 0 0043.27 346.24zM747.78 67L729.7 77.23a2.92 2.92 0 00-.05 5.06l17.9 10.54a2.92 2.92 0 004.4-2.49l.19-20.77A2.92 2.92 0 00747.78 67z"
                    class="color807dfb svgShape"></path>
            </g>
        </svg></g>
</svg>