<svg id="SvgjsSvg1223" width="550" height="490" xmlns="http://www.w3.org/2000/svg" version="1.1"
    xmlns:xlink="http://www.w3.org/1999/xlink" xmlns:svgjs="http://svgjs.com/svgjs">
    <defs id="SvgjsDefs1224"></defs>
    <g id="SvgjsG1225"><svg xmlns="http://www.w3.org/2000/svg" viewBox="0 0 1364 960" width="550" height="550">
            <path fill="#e8e8ff"
                d="M1181.35 399.144c-38.801-45.604-107.296-48.539-140.459-123.794-26.733-60.664-3.068-94.982-30.949-121.413-58.411-55.377-190.679 68.339-304.724 9.523-52.193-26.917-40.262-60.955-97.607-90.465-83.659-43.052-214.394-24.836-261.872 45.232-47.566 70.198 29.176 132.31-11.903 228.543-46.046 107.87-174.041 103.787-190.453 185.691-7.334 36.601.378 117.663 105.351 204.737 146.075 88.093 263.332 4.897 438.175-6.778 137.344-9.171 295.321 166.14 446.508-26.582 136.561-174.078 85.398-260.66 47.933-304.694z"
                class="colorE8EFFF svgShape"></path>
            <path fill="#c8c8e3"
                d="M507.519 864.124V608.45h-8.521v255.674h-20.34v6.381h50.576v-6.381zM421.027 374.994h8.063v207.069h-8.063z"
                class="colorC8CBE3 svgShape"></path>
            <path fill="#f9e3cb"
                d="m571.94 780.65-12.714 33.61c9.316 7.134 19.479 11.639 31.128 11.535L605.93 792.4l-33.99-11.75z"
                class="colorF9CBCB svgShape"></path>
            <path fill="#333347"
                d="M604.571 814.861c-19.336-3.821-29.124-7.792-44.908-17.646 6.422-26.118 23.005-142.84 48.401-204.512-40.201-35.186-202.045 9.279-138.602-142.541l82.586 16.822c-3.987 17.211 124.264 50.186 136.227 94.244 13.247 48.79-49.529 168.808-83.704 253.633z"
                class="color333547 svgShape"></path>
            <path fill="#43435d"
                d="M559.227 814.26c-8.409 6.432-13.027 15.9-14.088 28.217l80.914 31.096c17.826-28.237-34.673-31.824-35.699-47.778-11.847-.738-21.845-5.382-31.127-11.535z"
                class="color43455D svgShape"></path>
            <path fill="#f9e3cb"
                d="m694.143 802.193-.114 35.934c11.227 3.412 22.325 4.065 33.196-.118l2.87-36.738-35.952.922z"
                class="colorF9CBCB svgShape"></path>
            <path fill="#43435d"
                d="M736.702 822.781c-19.447 3.205-30.007 2.921-48.244-.768-3.15-26.711-28.571-141.831-26.427-208.493-29.872-11.261-117.709.076-169.355-21.836-34.783-14.757-44.391-43.087-41.918-109.26l109.169-5.91c2.305 17.515 139.514 42.331 166.173 79.391 29.523 41.04 12.845 175.453 10.602 266.876zM694.03 838.127c-5.618 8.973-6.621 19.46-3.292 31.366l86.68.731c6.786-32.696-43.635-17.637-50.192-32.216-11.354 3.465-22.345 2.624-33.196.119z"
                class="color43455D svgShape"></path>
            <path fill="#ebceb0"
                d="M694.639 407.271s46.858 6.184 54.024 13.843c7.167 7.659 13.647 30.809 6.779 26.511-6.868-4.297-14.698-11.153-23.265-14.517-8.583-3.37-13.136 5.179-18.688 2.231-5.552-2.948-21.075-6.172-21.075-6.172l2.225-21.896z"
                class="colorEBB0B0 svgShape"></path>
            <path fill="#fe9526"
                d="M558.677 282.336c32.089 27.619 39.202 78.915 51.149 97.747l87.536 21.659-3.83 28.941s-81.447-3.072-95.179-10.149c-13.731-7.077-85.27-82.579-85.27-82.579s3.12-92.176 45.594-55.619z"
                class="colorDE6172 svgShape"></path>
            <path fill="#d99145"
                d="M524.054 276.862a8.14 8.14 0 0 0-3.953.341c-9.36 3.255-48.751 19.412-57.614 63.331-5.748 28.478-13.388 116.774-15.512 142.151-.339 4.053 2.308 7.766 6.267 8.698 39.516 9.301 97.41 4.111 113.699-9.744 2.035-1.73 3.074-4.347 2.858-7.009-5.252-64.717 18.781-80.105 14.171-152.427-1.079-16.933-17.743-33.18-23.419-38.248a8.197 8.197 0 0 0-4.193-1.984l-32.304-5.109z"
                class="colorD94559 svgShape"></path>
            <path fill="#050632"
                d="M552.252 248.792c-12.302 1.853-17.94 7.002-31.941-2.068-21.303-13.8-34.607-56.311-1.523-69.607 3.05-5.949 5.534-8.068 13.802-8.593 8.264-.524 15.941 4.203 27.002 5.687 11.059 1.482 28.387-7.51 35.572 9.991 7.186 17.499-18.553 26.358-31.701 32.445-13.15 6.087-11.338 20.303-11.211 32.145z"
                class="color050D32 svgShape"></path>
            <path fill="#f9e3cb"
                d="M522.102 276.553c11.144 15.127 23.151 19.52 36.575 5.783l.719-25.81.315-10.865-29.065-4.407-1.562 6.529-6.982 28.77z"
                class="colorF9CBCB svgShape"></path>
            <path fill="#f0d3b4"
                d="M527.956 252.435c5.872 9.731 25.284 15.234 31.211 12.343l.544-19.116-27.371-16.699-4.384 23.472z"
                class="colorF0B4B4 svgShape"></path>
            <path fill="#f9e3cb"
                d="M582.307 197.118c3.062 15.888 3.251 50.014-11.421 60.469-9.289 6.618-38.219-.873-40.948-23.36-6.311-6.209-9.617-19.512-2.224-24.201 5.271-3.34 9.597 8.255 17.986 7.717 3.184-.203-3.16-22.229 6.998-24.337 10.16-2.108 19.165 7.164 29.609 3.712zM688.948 420.896s40.225-5.336 49.256 0c9.031 5.336 21.755 25.732 13.956 23.538-7.799-2.194-17.239-6.573-26.407-7.394-9.183-.822-11.151 8.662-17.308 7.394-6.157-1.269-21.96 0-21.96 0l2.463-23.538z"
                class="colorF9CBCB svgShape"></path>
            <path fill="#edb172"
                d="M521.996 314.523c40.488 21.934 84.576 101.584 84.576 101.584l92.709 4.523-1.09 30.519s-102.638 11.171-116.988 5.45c-14.348-5.722-73.088-56.099-91.458-79.405-29.32-37.2 1.188-79.497 32.251-62.671z"
                class="colorED7282 svgShape"></path>
            <path fill="#43435d" d="m789.736 343.668-16.526 99.048H671.819v13.641h114.919l18.801-112.689z"
                class="color43455D svgShape"></path>
            <path fill="#167ffc"
                d="M601.631 614.314h-188.59a3.375 3.375 0 0 1-3.375-3.375v-28.066a3.375 3.375 0 0 1 3.375-3.375h188.59a3.375 3.375 0 0 1 3.375 3.375v28.066a3.375 3.375 0 0 1-3.375 3.375zM439.919 444.628h-28.805a3.464 3.464 0 0 1-3.464-3.464V282.621a3.464 3.464 0 0 1 3.464-3.464h28.805a3.464 3.464 0 0 1 3.464 3.464v158.543a3.464 3.464 0 0 1-3.464 3.464zM643.153 456.357h413.9v22.172h-413.9z"
                class="color52A1FA svgShape"></path>
            <path fill="#c8c8e3" d="M844.938 478.529h7.616v388.835h-7.616z" class="colorC8CBE3 svgShape"></path>
            <path fill="#c8c8e3" d="M821.708 864.222h54.076v6.283h-54.076z" class="colorC8CBE3 svgShape"></path>
            <path fill="#0d0f75"
                d="M329.236 842.625c-6.957-29.915-11.57-115.866 4.434-173.487 13.853-49.886.24-79.144.102-79.436l2.957-1.427c.589 1.225 14.318 30.563.102 81.741-15.853 57.093-11.288 142.235-4.396 171.865l-3.199.744z"
                class="color0D3F75 svgShape"></path>
            <path fill="#0d0f75"
                d="M345.732 845.065c-2.238-.783-13.174-8.858-8.772-91.131 4.434-82.956-38.697-96.376-39.133-96.502l.911-3.155c1.882.546 46.074 14.296 41.499 99.83-4.3 80.404 6.624 87.861 6.736 87.925l-1.241 3.033z"
                class="color0D3F75 svgShape"></path>
            <path fill="#0d0f75"
                d="M339.967 840.378c-2.433-10.448 2.051-33.279 6.797-57.449 3.193-16.267 6.498-33.092 7.162-44.506.677-11.638-1.138-25.51-2.895-38.931-2.463-18.813-4.786-36.584-.888-49.135 2.462-7.919 8.214-13.818 15.783-16.187 8.143-2.529 17.312-.692 24.539 4.954l-2.02 2.584c-6.38-4.983-14.433-6.64-21.538-4.402-6.621 2.071-11.461 7.05-13.629 14.027-3.687 11.865-1.404 29.29 1.007 47.734 1.777 13.571 3.613 27.601 2.918 39.549-.677 11.635-4.001 28.57-7.217 44.949-4.473 22.766-9.095 46.307-6.819 56.07l-3.2.743z"
                class="color0D3F75 svgShape"></path>
            <path fill="#191b94"
                d="M245.361 694.782c9.496-3.916 20.543-22.487 30.919-22.051 2.368 11.817-15.138 12.325-21.712 19.338-5.438 7.233 20.378 11.196 31.53 3.791 9.352-5.673 5.363-19.098 15.397-39.188 8.331-17.294 14.578-17.859 15.249-28.201 1.225-18.921-18.422-36.077-20.507-34.841-.842.5 1.557 3.737 2.606 12.241.75.695.753 34.187-7.944 23.208-6.094-13.896 9.703-24.242-.928-39.995-7.975-11.809-28.426-11.364-28.861-9.895 10.384 2.375 17.067 28.973 12.628 39.702-3.194 6.215-5.783 1.005-6.715-5.255-5.795-20.19-7.449-31.231-22.357-39.265-18.274-9.848-32.523 7.58-55.542 11.64 0 0-5.243 28.186 6.175 43.678 10.989 14.91 26.12.673 38.181 4.153 5.37.996 6.77 7.861 3.461 11.217-4.618 6.824-15.467 7.525-23.296 7.945-12.971.689-17.613-2.037-19.062.383-4.05 6.278 16.31 23.339 27.249 19.3 13.877.949 29.097-22.613 43.114-16.713.456 11.015-26.996 23.552-38.828 24.464-6.281-.231-10.565-3.011-11.151-2.035 3.026 6.082 21.63 19.323 30.394 16.379z"
                class="color195494 svgShape"></path>
            <path fill="#8d8ee0"
                d="M268.661 692.457a19.897 19.897 0 0 0 8.831-3.486c2.54-1.792 4.541-4.165 6.073-6.855 1.674-2.952 2.829-6.147 4.068-9.296 1.349-3.409 2.874-6.753 4.616-9.98.791-1.455 1.571-2.945 2.518-4.303.789-1.133 1.821-2.216 3.267-2.373.016-.001.021-.015.037-.017.222.127.45.24.67.375.739.438 1.47.896 2.182 1.386.042-.116.095-.219.15-.33a41.596 41.596 0 0 0-4.032-2.397c-.004-.009-.009-.019-.016-.021-.493-.456-.9-1.027-1.24-1.611-.322-.547-.656-1.191-.65-1.841.015-.969.4-1.942.755-2.833.363-.889.747-1.778 1.151-2.652 2.831-6.154 6.509-11.954 8.545-18.452 1.668-5.341 2.245-11.227.182-16.545-.083-.214-.413-.066-.326.157 1.198 3.1 1.495 6.455 1.17 9.753-.638 6.454-3.522 12.328-6.448 18.026-1.624 3.155-3.283 6.297-4.612 9.59-.487 1.212-1.058 2.632-.585 3.925.259.724.682 1.438 1.185 2.059-3.952-1.923-8.174-3.206-12.365-4.495-.192-.062-.394-.121-.586-.183l-.004-.009c-2.204-2.338-3.575-5.317-4.291-8.433-1.464-6.351-.013-12.717 1.638-18.878.453-1.685.914-3.375 1.34-5.07.402-1.588.798-3.202.972-4.843.287-2.789-.181-5.846-2.261-7.893-.164-.16-.447.068-.276.23 2.618 2.573 2.506 6.485 1.825 9.83-1.359 6.644-3.971 13.078-4.216 19.928-.188 5.259 1.089 10.905 4.617 14.938-3.926-1.214-7.856-2.5-11.516-4.4-2-1.043-3.867-2.284-5.641-3.651-.011-.012-.012-.028-.031-.042-.021-.008-.038-.022-.065-.032a64.571 64.571 0 0 1-4.617-3.976c-2.465-2.318-4.819-4.748-7.258-7.095-1.449-3.253-2.051-6.827-2.404-10.348-.639-6.32-.172-12.874-2.243-18.971-1.848-5.425-6.38-10.644-12.477-10.852-.234-.009-.264.348-.03.357 3.39.113 6.423 1.924 8.645 4.422 4.296 4.835 4.98 11.539 5.288 17.732.282 5.699.412 11.687 2.574 17.049-.313-.298-.625-.603-.945-.904-3.189-2.942-6.639-5.526-10.39-7.705-7.686-4.465-16.15-7.339-24.535-10.162-.217-.079-.34.26-.123.339 1.027.343 2.053.686 3.078 1.035 8.063 2.752 16.174 5.736 23.402 10.318-2.267-.457-4.665.098-6.878.59-2.773.617-6.023 1.215-8.495-.598-.188-.137-.395.155-.207.293 2.313 1.702 5.375 1.389 8.021.824 2.754-.586 5.769-1.484 8.522-.466.013.005.018-.009.032-.004l.007.002c3.579 2.378 6.771 5.206 9.84 8.204 2.938 2.874 5.779 5.843 8.903 8.523.298.254.607.505.908.753-3.104-1.13-6.67-.571-9.685.688-3.486 1.456-6.372 4.006-9.191 6.457-2.799 2.435-5.685 4.693-8.91 6.528a47.17 47.17 0 0 1-20.343 6.05c-.233.008-.165.369.064.353a47.382 47.382 0 0 0 20.991-6.397c3.109-1.831 5.889-4.051 8.605-6.409 2.831-2.461 5.742-4.994 9.276-6.394 3.264-1.291 7.219-1.74 10.385.066 2.605 1.993 5.397 3.685 8.423 5.009 4.157 1.805 8.534 3.023 12.848 4.371l1.099.354c-2.459.387-4.792 1.502-6.808 2.948-2.169 1.551-3.968 3.561-5.733 5.542-1.825 2.061-3.67 4.091-5.7 5.955a60.89 60.89 0 0 1-13.073 9.173c-.208.109-.053.441.148.33a61.098 61.098 0 0 0 13.559-9.594c1.96-1.842 3.744-3.834 5.526-5.841 1.79-2.004 3.63-4.021 5.864-5.541 2.071-1.411 4.461-2.467 6.975-2.711.01-.004.005-.014.012-.011 3.216 1.056 6.378 2.261 9.348 3.864-1.254.281-2.222 1.21-2.964 2.237-1.098 1.497-1.961 3.193-2.839 4.823a93.31 93.31 0 0 0-4.496 9.755c-1.264 3.216-2.435 6.498-4.185 9.492-1.59 2.722-3.674 5.072-6.298 6.818a19.545 19.545 0 0 1-8.213 3.097c-.224.031-.16.384.066.352z"
                class="color8DB5E0 svgShape"></path>
            <path fill="#191b94"
                d="M452.434 617.569c-10.156 1.538-25.313 16.94-35.286 14.041.519-12.041 17.641-8.359 25.696-13.603 7.006-5.728-17.12-15.732-29.715-11.2-10.435 3.279-9.763 17.268-24.298 34.385-12.214 14.808-18.416 13.868-21.535 23.75-5.701 18.084 9.287 39.43 11.608 38.727.937-.284-.621-4 .389-12.509-.562-.854 7.421-33.38 13.249-20.645 2.604 14.948-15.203 21.229-8.636 39.063 4.929 13.37 24.896 17.815 25.669 16.492-9.518-4.783-9.666-32.208-2.796-41.568 4.584-5.274 5.856.403 5.269 6.705.813 20.989-.214 32.106 12.348 43.464 15.399 13.922 33.392.395 56.715 1.941 0 0 11.814-26.123 4.419-43.891-7.116-17.1-25.206-6.882-36.09-13.137-4.977-2.247-4.7-9.248-.686-11.719 6.112-5.526 16.815-3.62 24.518-2.161 12.761 2.424 16.619 6.179 18.604 4.174 5.43-5.131-10.274-26.556-21.861-25.241-13.249-4.232-33.649 15.021-45.855 5.949 2.185-10.805 31.834-16.435 43.54-14.499 6.045 1.722 9.543 5.444 10.345 4.635-1.489-6.628-16.398-23.922-25.611-23.153z"
                class="color195494 svgShape"></path>
            <path fill="#8d8ee0"
                d="M429.251 614.271a19.895 19.895 0 0 0-9.407 1.279c-2.895 1.135-5.403 2.963-7.532 5.209-2.33 2.469-4.213 5.295-6.167 8.059-2.123 2.989-4.401 5.873-6.863 8.59-1.115 1.224-2.227 2.485-3.472 3.578-1.036.912-2.296 1.718-3.738 1.525-.016-.002-.025.01-.041.008-.185-.177-.38-.341-.561-.524a38.04 38.04 0 0 1-1.789-1.866c-.068.102-.144.19-.224.284a41.533 41.533 0 0 0 3.345 3.289c.001.011.004.02.01.024.371.561.63 1.211.82 1.86.183.609.353 1.313.192 1.943-.245.938-.851 1.791-1.409 2.572a64.776 64.776 0 0 1-1.749 2.301c-4.218 5.301-9.173 10.057-12.699 15.882-2.894 4.79-4.858 10.368-4.122 16.025.028.228.385.163.354-.075-.424-3.296.087-6.626 1.19-9.75 2.159-6.116 6.359-11.133 10.56-15.968 2.33-2.677 4.69-5.333 6.767-8.213.762-1.061 1.655-2.303 1.503-3.672-.079-.764-.319-1.558-.66-2.282 3.38 2.81 7.174 5.064 10.937 7.313.172.106.353.211.525.318l.002.01c1.583 2.796 2.205 6.016 2.156 9.213-.092 6.518-3.019 12.353-6.093 17.943-.841 1.529-1.693 3.059-2.51 4.604-.769 1.447-1.538 2.92-2.099 4.471-.944 2.641-1.218 5.721.313 8.205.121.194.45.041.323-.158-1.928-3.122-.887-6.895.572-9.982 2.904-6.128 6.975-11.754 8.847-18.348 1.436-5.062 1.544-10.85-.922-15.608 3.524 2.116 7.034 4.301 10.135 7.02 1.694 1.491 3.211 3.139 4.608 4.891.008.014.006.03.02.048.018.012.032.03.056.046a64.62 64.62 0 0 1 3.535 4.962c1.841 2.839 3.548 5.761 5.356 8.621.632 3.505.365 7.119-.132 10.623-.887 6.289-2.904 12.544-2.347 18.958.501 5.709 3.658 11.858 9.529 13.515.226.064.341-.276.114-.34-3.265-.919-5.779-3.401-7.341-6.356-3.02-5.72-2.084-12.394-.908-18.481 1.085-5.601 2.387-11.448 1.566-17.171.233.365.463.735.702 1.104 2.396 3.618 5.13 6.95 8.253 9.961 6.4 6.169 13.934 10.978 21.404 15.719.191.128.392-.172.2-.3-.915-.578-1.83-1.156-2.742-1.74-7.175-4.595-14.339-9.427-20.267-15.601 2.093.985 4.553 1.017 6.82 1.068 2.841.062 6.139.257 8.107 2.607.15.178.42-.057.271-.235-1.84-2.205-4.888-2.63-7.592-2.714-2.815-.088-5.956.066-8.387-1.579-.012-.009-.02.004-.032-.004l-.006-.004c-2.909-3.162-5.334-6.671-7.6-10.314-2.167-3.491-4.219-7.053-6.613-10.4-.229-.318-.469-.635-.702-.948 2.745 1.838 6.342 2.145 9.569 1.642 3.733-.583 7.143-2.371 10.465-4.079 3.298-1.698 6.64-3.202 10.209-4.216a47.181 47.181 0 0 1 21.199-1.024c.228.048.249-.32.023-.358a47.073 47.073 0 0 0-11.624-.647 47.439 47.439 0 0 0-10.286 1.854c-3.456 1.037-6.685 2.53-9.886 4.172-3.336 1.715-6.766 3.481-10.533 3.998-3.478.475-7.426-.032-10.07-2.541-2.055-2.557-4.364-4.866-6.986-6.873-3.606-2.744-7.567-4.971-11.435-7.309l-.983-.606c2.48.211 5.012-.316 7.315-1.24 2.477-.989 4.702-2.511 6.89-4.016 2.264-1.566 4.539-3.098 6.954-4.424a60.828 60.828 0 0 1 14.883-5.79c.229-.056.157-.416-.065-.356a61.457 61.457 0 0 0-8.359 2.685 60.953 60.953 0 0 0-7.095 3.401c-2.343 1.322-4.551 2.83-6.76 4.354-2.216 1.52-4.483 3.04-7.016 3.983-2.348.876-4.92 1.333-7.42.97-.011.001-.009.012-.015.008-2.871-1.792-5.654-3.716-8.156-5.982 1.284.027 2.446-.645 3.412-1.465 1.422-1.192 2.666-2.634 3.907-4.008a93.132 93.132 0 0 0 6.692-8.401c1.994-2.823 3.914-5.731 6.328-8.22 2.193-2.264 4.778-4.05 7.742-5.12a19.57 19.57 0 0 1 8.715-1.049c.225.022.248-.336.02-.358z"
                class="color8DB5E0 svgShape"></path>
            <path fill="#4e50c7"
                d="M271.928 572.832c9.057 4.846 30.417 1.577 36.673 9.867-7.621 9.337-19.136-3.86-28.728-4.481-9.041.398 4.302 22.85 17.104 26.757 10.322 3.617 18.156-7.992 40.044-13.007 18.648-4.554 23.053-.089 31.466-6.141 15.39-11.076 16.157-37.147 13.877-37.972-.92-.333-1.897 3.576-7.797 9.789-.061 1.02-25.922 22.301-22.97 8.61 6.86-13.534 24.884-7.909 30.297-26.127 4.052-13.661-9.285-29.171-10.696-28.573 4.763 9.528-11.53 31.588-22.637 34.976-6.828 1.482-4.45-3.827-.208-8.525 11.909-17.302 19.385-25.594 16.118-42.211-4.005-20.369-26.517-20.3-44.276-35.497 0 0-25.098 13.858-29.807 32.519-4.531 17.958 16.075 20.598 21.051 32.123 2.642 4.779-1.77 10.222-6.464 9.8-8.203.769-15.638-7.163-20.936-12.942-8.773-9.579-9.617-14.895-12.407-14.477-7.421.862-7.661 27.424 2.408 33.304 8.083 11.32 35.948 8.103 40.298 22.677-8.217 7.35-35.339-5.883-43.56-14.441-3.813-4.997-4.387-10.072-5.514-9.905-2.773 6.202-1.178 28.98 6.664 33.877z"
                class="color4E88C7 svgShape"></path>
            <path fill="#53d86a"
                d="M288.526 589.348a19.88 19.88 0 0 0 8.303 4.604c2.998.824 6.101.86 9.151.334 3.344-.583 6.545-1.72 9.764-2.764 3.489-1.125 7.041-2.072 10.639-2.776 1.626-.314 3.272-.658 4.923-.789 1.376-.111 2.867-.002 3.907 1.015.012.011.025.006.037.019.043.252.1.5.137.755.131.848.242 1.704.316 2.565.116-.041.229-.065.35-.093a41.838 41.838 0 0 0-.711-4.637c.004-.01.008-.019.006-.026.039-.671.22-1.347.456-1.982.218-.597.503-1.263 1.009-1.671.758-.604 1.754-.925 2.668-1.217a66.244 66.244 0 0 1 2.778-.797c6.552-1.723 13.368-2.568 19.679-5.124 5.185-2.105 10.096-5.399 12.893-10.371.113-.2-.212-.361-.329-.152-1.634 2.895-4.035 5.257-6.788 7.1-5.39 3.608-11.757 5.113-18.017 6.473-3.468.75-6.948 1.465-10.336 2.531-1.246.393-2.705.854-3.402 2.041-.395.66-.677 1.44-.837 2.223-1.026-4.273-2.717-8.349-4.385-12.404-.074-.189-.157-.381-.231-.569l.004-.009c.405-3.187 1.834-6.139 3.786-8.671 3.975-5.166 9.812-8.09 15.62-10.729 1.588-.721 3.186-1.439 4.766-2.186 1.482-.699 2.98-1.419 4.358-2.326 2.337-1.551 4.4-3.855 4.659-6.761.019-.228-.337-.302-.352-.067-.324 3.656-3.416 6.055-6.432 7.655-5.995 3.172-12.623 5.243-18.068 9.406-4.18 3.196-7.73 7.769-8.603 13.057-1.556-3.803-3.061-7.656-3.918-11.689-.465-2.208-.694-4.437-.765-6.676.001-.015.014-.027.013-.051-.007-.02-.008-.043-.018-.07a64.488 64.488 0 0 1 .138-6.091c.223-3.376.605-6.738.867-10.112 1.592-3.186 3.969-5.922 6.465-8.431 4.474-4.509 9.832-8.312 13.224-13.786 3.015-4.873 4.167-11.69.454-16.529-.142-.187-.437.017-.295.204 2.066 2.69 2.595 6.183 2.078 9.486-1.003 6.39-5.747 11.176-10.333 15.349-4.222 3.839-8.764 7.744-11.531 12.821.031-.432.069-.866.098-1.305.245-4.332.049-8.638-.651-12.919-1.436-8.772-4.593-17.134-7.74-25.402-.077-.217-.417-.097-.341.12.388 1.01.775 2.021 1.156 3.034 2.998 7.976 5.847 16.134 6.901 24.628-1.088-2.041-3.039-3.54-4.825-4.937-2.239-1.749-4.766-3.879-4.936-6.94-.013-.233-.371-.206-.357.027.155 2.867 2.342 5.033 4.459 6.718 2.202 1.754 4.811 3.511 5.774 6.284.005.013.019.008.023.022l.003.007c.438 4.275.282 8.536-.084 12.811-.353 4.094-.84 8.175-.926 12.29-.007.392-.004.789-.004 1.179-1.099-3.116-3.797-5.513-6.685-7.042-3.338-1.767-7.141-2.376-10.825-2.995-3.659-.614-7.236-1.409-10.702-2.733a47.207 47.207 0 0 1-17.597-11.865c-.153-.175-.39.106-.232.273a47.082 47.082 0 0 0 8.925 7.475 47.437 47.437 0 0 0 9.351 4.671c3.388 1.237 6.869 1.974 10.416 2.573 3.7.622 7.505 1.26 10.831 3.1 3.071 1.701 5.93 4.47 6.547 8.062.117 3.278.584 6.509 1.484 9.687 1.247 4.356 3.088 8.511 4.787 12.699l.425 1.074c-1.861-1.653-4.205-2.746-6.603-3.384-2.576-.689-5.27-.802-7.923-.906-2.75-.1-5.491-.234-8.219-.618a60.88 60.88 0 0 1-15.389-4.268c-.217-.092-.375.239-.161.324a61.555 61.555 0 0 0 8.304 2.852 60.941 60.941 0 0 0 7.719 1.521c2.668.343 5.339.456 8.022.557 2.684.109 5.411.248 8.005 1.008 2.405.704 4.739 1.877 6.525 3.664.009.005.013-.005.016.002 1.228 3.154 2.306 6.361 2.955 9.674-1.013-.79-2.346-.947-3.611-.868-1.853.103-3.711.515-5.528.873a92.976 92.976 0 0 0-10.39 2.726c-3.287 1.068-6.565 2.248-9.989 2.799-3.113.501-6.251.385-9.267-.532a19.54 19.54 0 0 1-7.61-4.375c-.164-.155-.397.119-.228.273z"
                class="colorDAF2EE svgShape"></path>
            <path fill="#d99145"
                d="M376.119 813.895c-.413 5.317-7.423 48.405-8.073 56.686h-61.812c-.754-8.702-8.428-50.999-8.913-56.686h78.798z"
                class="colorD94559 svgShape"></path>
            <path fill="#c47e33"
                d="m297.321 813.895.618 7.156h23.796c21.637 0 37.076 18.367 36.99 40.003-.019 4.749-1.921 7.627-4.373 9.527h13.693c.65-8.283 7.66-51.37 8.073-56.686h-78.797z"
                class="colorC43348 svgShape"></path>
            <path fill="#d99145"
                d="M374.576 813.898h-75.711c-5.08 0-9.199-3.341-9.199-7.462 0-4.12 4.118-7.46 9.199-7.46h75.711c5.081 0 9.2 3.34 9.2 7.46 0 4.122-4.119 7.462-9.2 7.462z"
                class="colorD94559 svgShape"></path>
            <path fill="#595bd4"
                d="M927.567 92.739H671.383c-7.915 0-14.329 6.904-14.329 15.426v174.198c0 8.521 6.414 15.454 14.329 15.454h256.184c7.915 0 14.328-6.933 14.328-15.454V108.165c.001-8.522-6.413-15.426-14.328-15.426zm10.371 188.382c0 7.511-6.24 13.577-13.953 13.577H674.937c-7.684 0-13.924-6.065-13.924-13.577V127.896c0-7.511 6.24-13.606 13.924-13.606h249.048c7.713 0 13.953 6.095 13.953 13.606v153.225z"
                class="color4873BD svgShape"></path>
            <path fill="#ffffff"
                d="M937.938 127.896v153.225c0 7.511-6.24 13.577-13.953 13.577H674.937c-7.684 0-13.924-6.065-13.924-13.577V127.896c0-7.511 6.24-13.606 13.924-13.606h249.048c7.713 0 13.953 6.095 13.953 13.606zM709.389 103.818c0-1.422-1.07-2.575-2.39-2.575s-2.39 1.153-2.39 2.575c0 1.422 1.07 2.575 2.39 2.575s2.39-1.153 2.39-2.575zM697.278 103.818c0-1.422-1.07-2.575-2.39-2.575s-2.39 1.153-2.39 2.575c0 1.422 1.07 2.575 2.39 2.575s2.39-1.153 2.39-2.575zM685.168 103.818c0-1.422-1.07-2.575-2.39-2.575s-2.39 1.153-2.39 2.575c0 1.422 1.07 2.575 2.39 2.575s2.39-1.153 2.39-2.575zM863.118 106.393h54.933a2.575 2.575 0 0 0 0-5.15h-54.933a2.575 2.575 0 0 0 0 5.15z"
                class="colorFFF svgShape"></path>
            <circle cx="794.497" cy="160.311" r="38.275" fill="#7375ff" transform="rotate(-18.821 794.527 160.316)"
                class="color73B4FF svgShape"></circle>
            <circle cx="793.927" cy="149.484" r="14.859" fill="#ffffff" transform="rotate(-13.286 793.755 149.476)"
                class="colorFFF svgShape"></circle>
            <path fill="#ffffff"
                d="M807.555 164.463a3.234 3.234 0 0 0-4.043.058 14.814 14.814 0 0 1-9.393 3.344c-3.45 0-6.623-1.175-9.141-3.15-1.198-.94-2.897-.921-4.054.071-2.998 2.57-4.823 6.277-4.823 11.095v.434a4.511 4.511 0 0 0 4.512 4.511h27.767a4.512 4.512 0 0 0 4.512-4.511v-.434c0-5.025-2.039-8.842-5.337-11.418z"
                class="colorFFF svgShape"></path>
            <path fill="#b0b1ff"
                d="M832.916 223.034h-92.051a4.59 4.59 0 0 1-4.591-4.591v-1.389a4.591 4.591 0 0 1 4.591-4.591h92.051a4.591 4.591 0 0 1 4.591 4.591v1.389a4.591 4.591 0 0 1-4.591 4.591zM832.916 247.364h-91.773a4.59 4.59 0 0 1-4.591-4.591v-1.389a4.59 4.59 0 0 1 4.591-4.591h91.773a4.591 4.591 0 0 1 4.591 4.591v1.389a4.591 4.591 0 0 1-4.591 4.591zM858.085 223.034h-10.618a4.591 4.591 0 0 1-4.591-4.591v-1.389a4.591 4.591 0 0 1 4.591-4.591h10.618a4.591 4.591 0 0 1 4.591 4.591v1.389a4.591 4.591 0 0 1-4.591 4.591zM858.085 247.364h-10.618a4.591 4.591 0 0 1-4.591-4.591v-1.389a4.591 4.591 0 0 1 4.591-4.591h10.618a4.591 4.591 0 0 1 4.591 4.591v1.389a4.591 4.591 0 0 1-4.591 4.591z"
                class="colorB0D5FF svgShape"></path>
            <path fill="#ffffff"
                d="m746.021 238.775.308 2.161a.172.172 0 0 0 .229.137l2.049-.754c.184-.068.319.176.165.296l-1.718 1.347a.172.172 0 0 0-.004.267l1.677 1.398c.15.125.008.364-.174.291l-2.026-.814a.171.171 0 0 0-.233.13l-.372 2.151c-.033.193-.312.189-.339-.005l-.308-2.161a.172.172 0 0 0-.229-.137l-2.049.754c-.184.068-.319-.176-.165-.296l1.718-1.347a.172.172 0 0 0 .004-.267l-1.677-1.398c-.15-.125-.008-.364.174-.291l2.026.814a.171.171 0 0 0 .233-.13l.372-2.151c.033-.193.311-.189.339.005zM755.675 238.775l.308 2.161a.172.172 0 0 0 .229.137l2.049-.754c.184-.068.319.176.165.296l-1.718 1.347a.172.172 0 0 0-.004.267l1.677 1.398c.15.125.008.364-.174.291l-2.026-.814a.171.171 0 0 0-.233.13l-.372 2.151c-.033.193-.312.189-.339-.005l-.308-2.161a.172.172 0 0 0-.229-.137l-2.049.754c-.184.068-.319-.176-.165-.296l1.718-1.347a.172.172 0 0 0 .004-.267l-1.677-1.398c-.15-.125-.008-.364.174-.291l2.026.814a.171.171 0 0 0 .233-.13l.372-2.151c.033-.193.311-.189.339.005zM765.328 238.775l.308 2.161a.172.172 0 0 0 .229.137l2.049-.754c.184-.068.319.176.165.296l-1.718 1.347a.172.172 0 0 0-.004.267l1.677 1.398c.15.125.008.364-.174.291l-2.026-.814a.17.17 0 0 0-.233.13l-.372 2.151c-.033.193-.312.189-.339-.005l-.308-2.161a.172.172 0 0 0-.229-.137l-2.049.754c-.184.068-.319-.176-.165-.296l1.718-1.347a.172.172 0 0 0 .004-.267l-1.677-1.398c-.151-.125-.008-.364.174-.291l2.026.814a.171.171 0 0 0 .233-.13l.372-2.151c.033-.193.312-.189.339.005zM774.982 238.775l.308 2.161a.172.172 0 0 0 .229.137l2.049-.754c.184-.068.319.176.165.296l-1.718 1.347a.172.172 0 0 0-.004.267l1.677 1.398c.15.125.008.364-.174.291l-2.026-.814a.17.17 0 0 0-.233.13l-.372 2.151c-.033.193-.312.189-.339-.005l-.308-2.161a.172.172 0 0 0-.229-.137l-2.049.754c-.184.068-.319-.176-.165-.296l1.718-1.347a.172.172 0 0 0 .004-.267l-1.677-1.398c-.15-.125-.008-.364.174-.291l2.026.814a.171.171 0 0 0 .233-.13l.372-2.151c.033-.193.312-.189.339.005zM784.636 238.775l.308 2.161a.172.172 0 0 0 .229.137l2.049-.754c.184-.068.319.176.165.296l-1.718 1.347a.172.172 0 0 0-.004.267l1.677 1.398c.151.125.008.364-.174.291l-2.026-.814a.171.171 0 0 0-.233.13l-.372 2.151c-.033.193-.312.189-.339-.005l-.308-2.161a.172.172 0 0 0-.229-.137l-2.049.754c-.184.068-.319-.176-.165-.296l1.718-1.347a.172.172 0 0 0 .004-.267l-1.677-1.398c-.15-.125-.008-.364.174-.291l2.026.814a.171.171 0 0 0 .233-.13l.372-2.151c.033-.193.312-.189.339.005z"
                class="colorFFF svgShape"></path>
            <circle cx="745.04" cy="217.748" r="1.24" fill="#ffffff" class="colorFFF svgShape"></circle>
            <path fill="#ffffff" d="M747.804 217.748a1.24 1.24 0 1 1 2.48 0 1.24 1.24 0 0 1-2.48 0z"
                class="colorFFF svgShape"></path>
            <circle cx="753.046" cy="217.748" r="1.24" fill="#ffffff" class="colorFFF svgShape"></circle>
            <path fill="#ffffff" d="M755.809 217.748a1.24 1.24 0 1 1 2.48 0 1.24 1.24 0 0 1-2.48 0z"
                class="colorFFF svgShape"></path>
            <circle cx="761.051" cy="217.748" r="1.24" fill="#ffffff" class="colorFFF svgShape"></circle>
            <path fill="#ffffff" d="M763.815 217.748a1.24 1.24 0 1 1 2.48 0 1.24 1.24 0 0 1-2.48 0z"
                class="colorFFF svgShape"></path>
            <circle cx="769.057" cy="217.748" r="1.24" fill="#ffffff" class="colorFFF svgShape"></circle>
            <path fill="#ffffff" d="M771.82 217.748a1.24 1.24 0 1 1 2.48 0 1.24 1.24 0 0 1-2.48 0z"
                class="colorFFF svgShape"></path>
            <path fill="#7375ff"
                d="M817.337 281.186H774.5a6.682 6.682 0 0 1-6.682-6.682v-2.022a6.682 6.682 0 0 1 6.682-6.682h42.837a6.682 6.682 0 0 1 6.682 6.682v2.022a6.682 6.682 0 0 1-6.682 6.682z"
                class="color73B4FF svgShape"></path>
            <path fill="#ffffff"
                d="m773.105 274.33 2.312-.145c.05.376.152.662.306.858.25.318.608.477 1.073.477.347 0 .614-.081.802-.244.188-.163.282-.351.282-.566 0-.204-.09-.386-.268-.547-.179-.161-.594-.313-1.245-.456-1.066-.24-1.826-.558-2.28-.955a1.92 1.92 0 0 1-.687-1.518c0-.404.117-.786.351-1.145s.587-.642 1.057-.848c.47-.206 1.115-.309 1.934-.309 1.005 0 1.771.187 2.299.561.528.374.841.968.942 1.784l-2.291.134c-.061-.354-.189-.612-.384-.772-.195-.161-.464-.242-.807-.242-.282 0-.495.06-.638.18a.552.552 0 0 0-.215.437c0 .125.059.238.177.338.115.104.386.2.815.29 1.062.229 1.823.46 2.283.695.459.234.794.525 1.003.872.209.347.314.735.314 1.164 0 .504-.14.969-.419 1.395a2.615 2.615 0 0 1-1.17.968c-.501.22-1.132.33-1.894.33-1.338 0-2.264-.258-2.779-.773-.514-.515-.805-1.169-.873-1.963zM781.399 269.067h2.183v1.486h-2.183v-1.486zm0 2.167h2.183v5.697h-2.183v-5.697zM788.942 271.234h2.044v5.381l.005.252c0 .358-.076.698-.228 1.022a2.147 2.147 0 0 1-.606.786c-.252.2-.572.345-.96.435a5.99 5.99 0 0 1-1.333.134c-1.145 0-1.93-.172-2.358-.515-.428-.343-.641-.803-.641-1.379 0-.072.004-.168.011-.29l2.119.241c.053.197.136.333.247.408.161.111.363.166.606.166.315 0 .55-.084.706-.252.156-.168.233-.461.233-.88v-.864c-.215.254-.429.438-.644.553a2.28 2.28 0 0 1-1.089.268c-.762 0-1.377-.333-1.845-.998-.333-.472-.499-1.096-.499-1.872 0-.887.215-1.563.644-2.028.429-.465.991-.697 1.685-.697.443 0 .809.075 1.097.226.288.15.557.399.807.746v-.843zm-2.055 2.763c0 .411.087.716.263.915a.88.88 0 0 0 .692.298c.272 0 .5-.103.684-.308.184-.206.276-.516.276-.931 0-.415-.096-.732-.29-.952a.907.907 0 0 0-.708-.33.82.82 0 0 0-.668.303c-.166.202-.249.537-.249 1.005zM792.305 271.234h2.033v.928c.304-.379.612-.65.923-.813.311-.163.69-.244 1.137-.244.604 0 1.077.18 1.419.539.341.359.512.915.512 1.666v3.621h-2.194v-3.133c0-.358-.066-.611-.198-.759-.132-.148-.318-.223-.558-.223-.265 0-.479.1-.644.3-.165.2-.247.56-.247 1.078v2.736h-2.183v-5.696zM808.56 269.067h2.425v4.686c0 .465-.073.903-.217 1.316a2.846 2.846 0 0 1-.681 1.083 2.714 2.714 0 0 1-.974.651c-.472.175-1.039.263-1.701.263-.383 0-.8-.027-1.253-.081-.453-.054-.831-.16-1.135-.319a2.838 2.838 0 0 1-.834-.678 2.493 2.493 0 0 1-.518-.906c-.15-.5-.225-.944-.225-1.33v-4.686h2.425v4.797c0 .429.119.764.357 1.005.238.241.568.362.99.362.419 0 .747-.119.984-.357.238-.238.357-.574.357-1.01v-4.796zM812.46 279.099v-7.865h2.044v.842c.283-.354.542-.594.778-.719a2.23 2.23 0 0 1 1.057-.252c.762 0 1.351.292 1.768.875.417.583.625 1.304.625 2.162 0 .948-.227 1.671-.682 2.17-.454.499-1.028.748-1.722.748-.336 0-.643-.057-.92-.172a2.188 2.188 0 0 1-.743-.509v2.72h-2.205zm2.189-5c0 .451.095.785.284 1.003a.91.91 0 0 0 .719.327.794.794 0 0 0 .638-.314c.172-.209.258-.564.258-1.065 0-.461-.09-.8-.268-1.017a.82.82 0 0 0-.654-.324.879.879 0 0 0-.697.327c-.187.219-.28.573-.28 1.063z"
                class="colorFFF svgShape"></path>
            <path fill="#b0b1ff"
                d="M1022.555 218.577h-120.97c-6.076 0-11.001-4.925-11.001-11.001v-53.501c0-6.076 4.925-11.001 11.001-11.001h120.971c6.076 0 11.001 4.925 11.001 11.001v53.501c-.001 6.076-4.926 11.001-11.002 11.001z"
                class="colorB0D5FF svgShape"></path>
            <path fill="#ffffff"
                d="M939.667 161.568h-35.241a1.38 1.38 0 1 1 0-2.762h35.241a1.381 1.381 0 0 1 0 2.762zM1001.914 161.568h-54.601a1.38 1.38 0 1 1 0-2.762h54.601a1.38 1.38 0 1 1 0 2.762zM1022.348 161.568h-11.457a1.202 1.202 0 1 1 0-2.404h11.457a1.202 1.202 0 1 1 0 2.404zM1022.169 175.839H904.425a1.38 1.38 0 1 1 0-2.762h117.744a1.381 1.381 0 0 1 0 2.762zM939.667 202.845h-35.241a1.38 1.38 0 1 1 0-2.762h35.241a1.381 1.381 0 0 1 0 2.762zM1001.914 202.845h-54.601a1.38 1.38 0 1 1 0-2.762h54.601a1.38 1.38 0 1 1 0 2.762zM963.016 188.575h-58.591a1.38 1.38 0 1 1 0-2.762h58.591a1.381 1.381 0 0 1 0 2.762zM1022.169 188.575h-45.113a1.38 1.38 0 1 1 0-2.762h45.113a1.381 1.381 0 0 1 0 2.762zM1022.348 202.845h-11.457a1.202 1.202 0 1 1 0-2.404h11.457a1.202 1.202 0 1 1 0 2.404z"
                class="colorFFF svgShape"></path>
            <path fill="#b0b1ff"
                d="M452.773 197.57H327.971c-6.076 0-11.001-4.925-11.001-11.001v-55.525c0-6.075 4.925-11.001 11.001-11.001h124.803c6.075 0 11.001 4.925 11.001 11.001v55.525c-.001 6.075-4.926 11.001-11.002 11.001z"
                class="colorB0D5FF svgShape"></path>
            <path fill="#ffffff"
                d="M367.368 139.033h-36.186a1.418 1.418 0 0 1 0-2.836h36.186a1.418 1.418 0 0 1 0 2.836zM431.284 139.033H375.22a1.418 1.418 0 0 1 0-2.836h56.064a1.418 1.418 0 0 1 0 2.836zM452.265 139.033h-11.764a1.234 1.234 0 0 1 0-2.468h11.764a1.233 1.233 0 1 1 0 2.468zM452.081 153.686H331.182a1.418 1.418 0 0 1 0-2.836h120.899a1.417 1.417 0 1 1 0 2.836zM367.368 181.416h-36.186a1.418 1.418 0 0 1 0-2.836h36.186a1.418 1.418 0 0 1 0 2.836zM431.284 181.416H375.22a1.418 1.418 0 0 1 0-2.836h56.064a1.418 1.418 0 0 1 0 2.836zM391.343 166.763h-60.161a1.418 1.418 0 0 1 0-2.836h60.161a1.418 1.418 0 0 1 0 2.836zM452.081 166.763H405.76a1.418 1.418 0 0 1 0-2.836h46.322a1.418 1.418 0 1 1-.001 2.836zM452.265 181.416h-11.764a1.234 1.234 0 0 1 0-2.468h11.764a1.233 1.233 0 1 1 0 2.468z"
                class="colorFFF svgShape"></path>
            <path fill="#191b94"
                d="m941.514 713.87 27.114 157.531a429.128 429.128 0 0 0 87.263 0l27.115-157.531H941.514zm118.996 10.73-.05 14.535-12.612 7.225-12.563-7.31.05-14.535 4.38-2.509h16.337l4.458 2.594zm-2.256-2.595h6.536l-3.257 1.866v.042l-3.279-1.908zm-106.315 18.116.598-.343.001-.042.107.062-.693.397-.013-.074zm.212 1.236.511-.292 12.563 7.31-.049 14.535-8.479 4.857-4.546-26.41zm14.071 22.368 12.563 7.31-.049 14.535-12.612 7.225-5.688-3.31-3.517-20.432 9.303-5.328zm66.984 7.309-.049 14.535-12.612 7.225-12.563-7.311.049-14.535 12.613-7.225 12.562 7.311zm-11.479-8.21.049-14.535 12.612-7.225 12.563 7.31-.049 14.535-12.613 7.225-12.562-7.31zm-1.894 31.985-.049 14.536-12.547 7.187-12.628-7.348.049-14.46 12.612-7.225 12.563 7.31zm-.049-31.9-12.612 7.225-12.563-7.31.049-14.535 12.612-7.225 12.563 7.31-.049 14.535zm-13.696 8.125-.049 14.535-12.613 7.225-12.563-7.311.049-14.535 12.612-7.225 12.564 7.311zm-13.608-8.125-12.612 7.225-12.563-7.31.049-14.535 12.613-7.225 12.563 7.31-.05 14.535zm-25.126 31.815 12.613-7.225 12.563 7.31-.049 14.536-12.547 7.187-12.628-7.348.048-14.46zm14.116 22.66 12.547-7.187 12.628 7.348-.049 14.46-12.612 7.225-12.563-7.31.049-14.536zm13.744 23.775 12.613-7.225 12.563 7.311-.049 14.535-12.612 7.225-12.563-7.31.048-14.536zm13.325-9.239.05-14.536 12.547-7.187 12.628 7.348-.049 14.46-12.612 7.225-12.564-7.31zm13.188-22.736.049-14.46 12.612-7.225 12.563 7.31-.049 14.536-12.547 7.187-12.628-7.348zm13.558-23.7.05-14.535 12.612-7.225 12.563 7.31-.05 14.535-12.612 7.225-12.563-7.31zm-1.056-61.613v.042l-3.279-1.908h6.536l-3.257 1.866zm-1.023.729-.049 14.535-12.612 7.225-12.563-7.31.049-14.535 4.38-2.509h16.337l4.458 2.594zm-26.224-.762-3.151-1.833h6.351l-3.2 1.833zm-.894.762-.049 14.535-12.613 7.225-12.563-7.31.049-14.535 4.38-2.509h16.337l4.459 2.594zm-26.281-.729v.042l-3.279-1.908h6.536l-3.257 1.866zm-1.022.729-.049 14.535-12.612 7.225-12.563-7.31.05-14.535 4.38-2.509h16.337l4.457 2.594zm-26.282-.729v.042l-3.279-1.908h6.536l-3.257 1.866zm-1.022.729-.042 12.613-2.418-14.044 2.46 1.431zm13.744 70.209-.049 14.536-1.204.69-3.051-17.73 4.304 2.504zm1.488 15.388 12.629 7.348-.049 14.46-10.503 6.016-4.546-26.41 2.469-1.414zm2.489 30.223 11.321-6.486 12.563 7.311-.05 14.535-12.612 7.225-8.152-4.743-3.07-17.842zm24.88 16.174 11.466 6.672h-23.113l11.647-6.672zm27.118 0 11.466 6.672h-23.113l11.647-6.672zm1.083-.9.05-14.536 12.612-7.225 12.563 7.311-.05 14.535-12.612 7.225-12.563-7.31zm13.559-23.774.049-14.536 12.547-7.187 10.98 6.389-3.119 18.121-7.894 4.523-12.563-7.31zm13.794 9.239 6.16-3.529-3.391 19.704-2.818-1.639.049-14.536zm9.995-25.806-10.601-6.169.049-14.46 12.612-7.225 2.485 1.446-4.545 26.408zm2.958-29.869.049-14.535 5.143-2.946-3.207 18.636-1.985-1.155zm-.996-15.35-12.563-7.31.05-14.535 12.612-7.225 9.75 5.673-3.391 19.697-6.458 3.7zm10.246-25.703-9.249-5.382.049-14.535 4.38-2.509h8.68l-3.86 22.426zm-99.273 115.531 5.679 3.304h-5.11l-.569-3.304zm64.291 3.304 11.647-6.672 3.662 2.131-.781 4.541h-14.528z"
                class="color195494 svgShape"></path>
            <path fill="#3335bd"
                d="M1085.855 721.833H938.664c-2.352 0-4.258-2.745-4.258-6.129 0-3.385 1.906-6.129 4.258-6.129h147.191c2.351 0 4.257 2.745 4.257 6.129.001 3.385-1.906 6.129-4.257 6.129z"
                class="color3375BD svgShape"></path>
            <path fill="#c8c8e3"
                d="M1177.441 874.9H186.559a2.338 2.338 0 0 1 0-4.676h990.882a2.338 2.338 0 0 1 0 4.676zM549.648 910.12H259.184a2.338 2.338 0 0 1 0-4.676h290.463a2.337 2.337 0 1 1 .001 4.676zM731.102 910.12H598.185a2.338 2.338 0 0 1 0-4.676h132.917a2.339 2.339 0 0 1 0 4.676z"
                class="colorC8CBE3 svgShape"></path>
            <linearGradient id="a" x1="901.538" x2="842.794" y1="289.413" y2="349.611" gradientUnits="userSpaceOnUse">
                <stop offset="0" stop-color="#ffffff" class="stopColorfff svgShape"></stop>
                <stop offset="1" stop-color="#000000" class="stopColor000000 svgShape"></stop>
            </linearGradient>
            <path fill="url(#a)" d="m861.056 376.877-48.596-42.161 61.602-52.196 29.976 26.006z"></path>
            <path fill="#ffffff" d="M896.245 296.216a8.563 8.563 0 1 0-17.127 0 8.563 8.563 0 0 0 17.127 0z"
                class="colorFFF svgShape"></path>
            <path fill="#43435d"
                d="m952.441 449.541 38.799-106.544-78.228-78.228-1.73 1.73 77.126 77.126-38.266 105.079z"
                class="color43455D svgShape"></path>
            <path fill="#43435d"
                d="m958.557 447.094 38.799-106.543-78.228-78.228-1.73 1.73 77.126 77.126-38.266 105.079z"
                class="color43455D svgShape"></path>
            <path fill="#43435d"
                d="M997.775 342.699a6.116 6.116 0 1 0-12.233 0 6.116 6.116 0 0 0 12.233 0zM907.178 286.695l13.172-14.477a8.562 8.562 0 0 0-.571-12.096 8.562 8.562 0 0 0-12.096.57l-13.173 14.476 12.668 11.527z"
                class="color43455D svgShape"></path>
            <path fill="#d99145"
                d="m869.666 283.136 33.329 30.327 12.004-13.193c8.375-9.203 7.703-23.453-1.501-31.828-9.203-8.375-23.453-7.703-31.828 1.501l-12.004 13.193z"
                class="colorD94559 svgShape"></path>
            <path fill="#43435d"
                d="M938.263 456.357h32.53c0-8.983-7.282-16.265-16.265-16.265s-16.265 7.282-16.265 16.265z"
                class="color43455D svgShape"></path>
        </svg></g>
</svg>